<?xml version="1.0" standalone="no"?><!DOCTYPE svg PUBLIC "-//W3C//DTD SVG 1.1//EN" "http://www.w3.org/Graphics/SVG/1.1/DTD/svg11.dtd"><svg width="100%" height="100%" viewBox="0 0 1200 1200" version="1.1" xmlns="http://www.w3.org/2000/svg" xmlns:xlink="http://www.w3.org/1999/xlink" xml:space="preserve" style="fill-rule:evenodd;clip-rule:evenodd;stroke-linejoin:round;stroke-miterlimit:1.41421;"><g id="Layer1"><path d="M546.366,919.361l-54.6699,-453.498l-82.9679,196.056l-316.769,0c82.1965,143.199 238.061,306.816 505.589,494.466c270.628,-189.723 426.88,-354.76 508.689,-499.256l-410.211,0l-149.659,262.232ZM917.417,50.9949c-18.6145,-1.67545 -36.0601,-2.70723 -52.7294,-2.70723c-131.438,0 -194.636,56.8612 -267.14,143.066c-72.1154,-86.2052 -135.314,-143.066 -266.752,-143.066c-16.674,0 -34.1196,1.03177 -52.7294,2.70723c-113.992,10.9898 -245.818,115.417 -262.099,315.344l0,66.5637c4.26435,52.9897 18.6098,109.595 45.7483,169.817l307.852,0l154.312,-364.586l59.7104,496.539l78.3155,-136.734l473.798,0c25.9742,-58.4136 39.5435,-113.467 43.4245,-165.037l0,-66.5637c-15.8978,-199.928 -147.724,-304.355 -261.711,-315.344Z" style="fill:#4b4a4b;fill-rule:nonzero;"/></g></svg>